<svg xmlns="http://www.w3.org/2000/svg" xmlns:xlink="http://www.w3.org/1999/xlink" width="1920" zoomAndPan="magnify" viewBox="0 0 1440 809.999993" height="1080" preserveAspectRatio="xMidYMid meet" version="1.0"><defs><clipPath id="63c8d30c51"><path d="M 0.273438 158 L 365 158 L 365 748 L 0.273438 748 Z M 0.273438 158 " clip-rule="nonzero"/></clipPath><clipPath id="56bd22f041"><path d="M 366.082031 4 L 486 4 L 486 243.652344 L 366.082031 243.652344 Z M 366.082031 4 " clip-rule="nonzero"/></clipPath><clipPath id="bff275b9fa"><path d="M 371 0.0195312 L 489.832031 0.0195312 L 489.832031 236 L 371 236 Z M 371 0.0195312 " clip-rule="nonzero"/></clipPath><clipPath id="f81af1f191"><rect x="0" width="491" y="0" height="752"/></clipPath></defs><rect x="-144" width="1728" fill="#ffffff" y="-80.999999" height="971.999992" fill-opacity="1"/><rect x="-144" width="1728" fill="#ffffff" y="-80.999999" height="971.999992" fill-opacity="1"/><g transform="matrix(1, 0, 0, 1, 475, 30)"><g clip-path="url(#f81af1f191)"><path fill="#000000" d="M 173.042969 448.167969 L 173.042969 443.40625 C 170.914062 442.652344 168.835938 441.734375 166.660156 441.1875 C 157.632812 438.917969 148.90625 435.230469 139.363281 435.3125 C 138.445312 435.320312 137.339844 435.113281 136.644531 434.582031 C 135.515625 433.710938 133.992188 432.5625 133.867188 431.402344 C 133.742188 430.25 134.871094 428.195312 135.917969 427.8125 C 139.984375 426.332031 144.257812 424.292969 148.414062 424.382812 C 166.773438 424.773438 182.933594 430.582031 194.007812 446.253906 C 205.492188 462.507812 215.507812 479.613281 222.207031 498.480469 C 226.386719 510.242188 229.574219 522.269531 228.789062 534.855469 C 228.453125 540.289062 227.519531 545.96875 225.46875 550.960938 C 219.347656 565.847656 204.527344 570.90625 190.554688 562.949219 C 177.574219 555.554688 168.351562 544.519531 162.128906 530.96875 C 161.578125 529.769531 160.890625 528.382812 161.023438 527.164062 C 161.5625 522.203125 158.972656 518.382812 156.816406 514.378906 C 152.660156 506.648438 148.410156 498.96875 144.390625 491.167969 C 142.914062 488.304688 141.847656 485.199219 140.890625 482.113281 C 140.625 481.265625 141.140625 479.640625 141.832031 479.175781 C 142.488281 478.738281 143.902344 479.207031 144.875 479.570312 C 145.53125 479.816406 146.027344 480.546875 146.546875 481.097656 C 157.425781 492.660156 165.328125 505.9375 170.519531 521 C 174.777344 533.359375 182.550781 543.460938 192.789062 551.550781 C 194.988281 553.292969 197.628906 554.699219 200.292969 555.589844 C 207.285156 557.929688 214.558594 554.34375 218.238281 547.019531 C 220.886719 541.742188 221.746094 535.976562 221.003906 530.28125 C 219.949219 522.179688 218.632812 514.03125 216.449219 506.179688 C 212.898438 493.445312 207.101562 481.535156 200.488281 470.148438 C 195.347656 461.300781 187.675781 454.542969 179.375 448.667969 C 178.0625 447.738281 175.671875 448.328125 173.046875 448.171875 Z M 173.042969 448.167969 " fill-opacity="1" fill-rule="nonzero"/><path fill="#000000" d="M 304.6875 420.007812 C 300.953125 417.867188 298.207031 420 295.527344 422.199219 C 282.726562 432.6875 274.578125 445.6875 273.171875 462.582031 C 272.140625 474.976562 271.101562 487.339844 273.214844 499.703125 C 274.8125 509.03125 278.101562 517.746094 283.097656 525.78125 C 284.296875 527.71875 285.667969 529.589844 287.199219 531.273438 C 291.707031 536.222656 295.324219 536.003906 299.238281 530.453125 C 303.214844 524.820312 304.503906 518.191406 305.285156 511.546875 C 306.242188 503.398438 306.648438 495.183594 307.476562 487.019531 C 307.761719 484.199219 308.332031 481.347656 309.261719 478.679688 C 310.125 476.199219 312.136719 474.527344 314.984375 474.8125 C 317.617188 475.074219 318.898438 477.019531 319.464844 479.398438 C 319.863281 481.058594 320.257812 482.773438 320.257812 484.464844 C 320.265625 497.6875 319.390625 510.871094 315.429688 523.539062 C 313.867188 528.53125 311.425781 533.589844 308.171875 537.640625 C 300.292969 547.433594 289.167969 547.605469 280.484375 538.507812 C 271.65625 529.257812 266.808594 517.84375 264.183594 505.550781 C 260.152344 486.691406 261.511719 467.84375 266.464844 449.398438 C 270.457031 434.535156 280.457031 423.792969 293.09375 415.464844 C 294.949219 414.242188 297.226562 413.351562 299.417969 413 C 303.699219 412.316406 305.570312 414.785156 304.691406 420.003906 Z M 304.6875 420.007812 " fill-opacity="1" fill-rule="nonzero"/><g clip-path="url(#63c8d30c51)"><path fill="#000000" d="M 320.949219 362.09375 C 325.714844 363.265625 325.847656 363.210938 327.742188 368.109375 C 337.734375 393.980469 346.382812 420.296875 350.972656 447.703125 C 354.789062 470.480469 358.550781 493.339844 360.691406 516.316406 C 363.957031 551.3125 365.613281 586.4375 363.152344 621.628906 C 362.367188 632.867188 362.316406 644.15625 361.875 655.417969 C 361.578125 663.023438 360.972656 670.503906 359.191406 678.039062 C 354.570312 697.589844 347.242188 715.871094 336.175781 732.605469 C 334.304688 735.433594 331.996094 738.125 329.398438 740.289062 C 323.890625 744.871094 317.90625 744.511719 313.136719 739.222656 C 310.488281 736.285156 307.976562 732.929688 306.460938 729.316406 C 297.679688 708.390625 287.746094 687.917969 282.039062 665.78125 C 278.992188 653.957031 275.039062 642.367188 271.6875 630.621094 C 270.132812 625.175781 266.941406 622.015625 261.46875 620.195312 C 253.707031 617.613281 245.902344 616.5625 237.816406 617.136719 C 229.632812 617.71875 221.457031 618.429688 213.269531 618.90625 C 204.800781 619.398438 199.148438 622.96875 196.191406 631.46875 C 192.699219 641.496094 190.355469 651.628906 189.933594 662.203125 C 189.527344 672.511719 189.273438 682.824219 188.925781 693.136719 C 188.503906 705.570312 187.464844 717.933594 184.125 729.976562 C 183.3125 732.902344 182.324219 735.847656 180.9375 738.535156 C 176.660156 746.816406 168.5625 749.570312 160.125 745.597656 C 152.671875 742.085938 146.871094 736.554688 142.652344 729.542969 C 135.839844 718.214844 130.300781 706.296875 126.8125 693.476562 C 124.257812 684.085938 121.582031 674.730469 118.839844 665.390625 C 114.332031 650.042969 112.890625 634.289062 112.5625 618.398438 C 112.421875 611.5 111.992188 604.75 109.984375 598.035156 C 108.460938 592.953125 108.238281 587.5 107.1875 582.257812 C 106.792969 580.277344 105.941406 578.285156 104.875 576.5625 C 100.753906 569.921875 96.148438 563.570312 92.292969 556.785156 C 78.332031 532.21875 64.433594 507.617188 50.832031 482.851562 C 41.554688 465.953125 32.789062 448.773438 23.84375 431.695312 C 17.90625 420.367188 12.003906 409.039062 7.996094 396.804688 C 4.644531 386.585938 2.484375 376.148438 1.097656 365.53125 C 0.222656 358.871094 1.507812 352.550781 5.378906 346.96875 C 9.3125 341.292969 13.925781 340.875 18.625 345.859375 C 24.554688 352.15625 29.488281 359.15625 32.660156 367.296875 C 35.847656 375.480469 38.945312 383.699219 42.308594 391.808594 C 44.203125 396.382812 46.507812 400.789062 48.699219 405.234375 C 55.359375 418.753906 62.261719 432.160156 68.679688 445.792969 C 75.019531 459.257812 80.960938 472.910156 86.914062 486.550781 C 89.433594 492.316406 91.433594 498.304688 93.867188 504.109375 C 96.046875 509.316406 98.5 514.40625 100.832031 519.550781 C 101.246094 519.460938 101.65625 519.371094 102.066406 519.28125 C 102.203125 518.085938 102.394531 516.890625 102.46875 515.691406 C 103.90625 492.433594 105.253906 469.175781 106.796875 445.925781 C 107.414062 436.59375 108.375 427.277344 109.308594 417.96875 C 110.824219 402.878906 114.308594 388.230469 119.601562 374.027344 C 120.671875 371.152344 120.785156 368.976562 118.507812 366.289062 C 110.515625 356.867188 105.320312 345.808594 101.007812 334.300781 C 95.246094 318.933594 89.300781 303.632812 83.671875 288.21875 C 81.847656 283.226562 80.449219 278.023438 79.402344 272.808594 C 76.917969 260.464844 74.441406 248.101562 72.554688 235.65625 C 69.976562 218.691406 74.230469 202.695312 80.613281 187.132812 C 80.902344 186.429688 81.261719 185.75 81.625 185.078125 C 86.8125 175.527344 92.808594 173.433594 102.347656 178.585938 C 116.882812 186.433594 130.082031 196.113281 141.078125 208.585938 C 142.070312 209.710938 143.070312 210.828125 144.066406 211.945312 C 149.800781 208.808594 155.195312 205.59375 160.804688 202.828125 C 187.808594 189.519531 216.148438 186.554688 245.511719 192.355469 C 253.46875 193.925781 260.828125 197.003906 267.125 202.3125 C 267.675781 202.777344 268.378906 203.058594 269.519531 203.722656 C 271.957031 197.628906 274.265625 191.8125 276.605469 186.011719 C 278.890625 180.351562 280.976562 174.59375 283.605469 169.097656 C 284.976562 166.234375 287.03125 163.542969 289.304688 161.308594 C 292.699219 157.976562 296.699219 158.039062 299.898438 161.535156 C 302.574219 164.464844 304.902344 167.804688 306.90625 171.246094 C 314.554688 184.375 319.40625 198.644531 323.453125 213.21875 C 323.859375 214.6875 324.082031 216.230469 324.660156 217.625 C 333.75 239.5 338.722656 262.480469 341.039062 285.859375 C 342.363281 299.242188 341.445312 312.957031 340.421875 326.433594 C 339.488281 338.714844 332.15625 348.386719 324.710938 357.710938 C 323.546875 359.171875 322.28125 360.550781 320.949219 362.09375 Z M 319.855469 364.984375 C 318.082031 366.261719 316.679688 367.203125 315.355469 368.242188 C 307.25 374.585938 299.398438 381.289062 291.007812 387.226562 C 281.730469 393.789062 271.253906 397.957031 260.082031 400.230469 C 251.484375 401.972656 242.882812 403.691406 234.28125 405.394531 C 221.617188 407.90625 208.777344 408.332031 196.105469 406.46875 C 175.378906 403.417969 155.546875 397.417969 137.910156 385.472656 C 134.09375 382.886719 130.222656 380.527344 127.742188 376.449219 C 127.136719 375.460938 125.953125 374.828125 124.6875 373.734375 C 124.074219 375.75 123.578125 377.179688 123.203125 378.640625 C 119.410156 393.496094 117.25 408.625 116.371094 423.90625 C 115.199219 444.3125 114.386719 464.738281 113.441406 485.15625 C 111.828125 520.007812 113.125 554.679688 119.824219 589.023438 C 120.335938 591.644531 121.414062 594.394531 121.035156 596.902344 C 120.039062 603.445312 121.128906 609.824219 121.789062 616.21875 C 122.492188 623.042969 124.242188 629.773438 124.753906 636.605469 C 125.558594 647.371094 127.902344 657.710938 131.480469 667.851562 C 133.515625 673.605469 135.507812 679.410156 136.96875 685.324219 C 140.058594 697.835938 145.117188 709.550781 150.605469 721.128906 C 153.027344 726.238281 156.507812 730.453125 161.007812 733.863281 C 168.164062 739.285156 171.417969 738.476562 173.367188 729.847656 C 175.125 722.054688 176.4375 714.074219 177.015625 706.109375 C 178.171875 690.105469 178.679688 674.058594 179.472656 658.03125 C 180 647.417969 182.648438 637.394531 186.886719 627.609375 C 191.484375 616.984375 199.242188 610.542969 210.367188 608.878906 C 221.652344 607.191406 233.082031 606.121094 244.484375 605.734375 C 250.058594 605.542969 255.761719 607.292969 261.316406 608.5625 C 274.421875 611.558594 282.300781 619.832031 286.230469 632.710938 C 290.625 647.125 295.804688 661.300781 300.660156 675.578125 C 301.519531 678.109375 302.386719 680.640625 303.371094 683.121094 C 308.3125 695.535156 313.285156 707.9375 318.269531 720.332031 C 319.175781 722.578125 320.207031 724.773438 321.605469 727.96875 C 323.507812 725.28125 324.925781 723.5625 326.027344 721.65625 C 327.839844 718.515625 329.453125 715.257812 331.136719 712.046875 C 344.425781 686.753906 350.273438 659.847656 348.589844 631.316406 C 348.414062 628.261719 347.90625 625.203125 348.042969 622.171875 C 348.140625 619.964844 348.335938 616.792969 349.730469 615.800781 C 352.675781 613.703125 352.5 611.0625 352.585938 608.308594 C 352.847656 600.097656 353.339844 591.878906 353.128906 583.679688 C 352.785156 570.3125 351.925781 556.960938 351.34375 543.601562 C 349.84375 508.980469 344.882812 474.777344 339.175781 440.660156 C 334.90625 415.160156 327.257812 390.539062 319.851562 364.988281 Z M 172.863281 207.09375 C 170.605469 208.0625 168.785156 208.636719 167.171875 209.570312 C 160.585938 213.398438 153.996094 217.234375 147.535156 221.269531 C 143.148438 224.007812 141.242188 224.082031 138.40625 219.980469 C 128.832031 206.128906 115.546875 196.550781 101.65625 187.695312 C 93.375 182.414062 91.1875 183.011719 88.125 192.417969 C 85.535156 200.375 83.804688 208.636719 82.078125 216.84375 C 80.984375 222.035156 79.785156 227.414062 80.046875 232.636719 C 80.800781 247.585938 85.703125 261.820312 88.546875 276.421875 C 88.941406 278.457031 89.890625 280.394531 90.625 282.359375 C 96.054688 296.816406 101.984375 311.113281 106.808594 325.769531 C 112.011719 341.585938 119.179688 356.164062 129.902344 368.898438 C 132.089844 371.496094 134.59375 373.953125 137.339844 375.933594 C 155.71875 389.203125 176.546875 396.136719 198.792969 399.195312 C 216.3125 401.605469 233.378906 398.367188 250.441406 394.914062 C 262.660156 392.441406 274.714844 389.578125 285.238281 382.515625 C 291.730469 378.15625 298.234375 373.746094 304.253906 368.773438 C 313.570312 361.074219 321.511719 352.066406 327.828125 341.664062 C 331.796875 335.125 333.761719 328.082031 334.046875 320.480469 C 334.800781 300.101562 331.925781 280.078125 328.078125 260.171875 C 325.074219 244.644531 321.65625 229.21875 316.871094 214.097656 C 312.183594 199.300781 306.964844 184.792969 298.691406 171.5625 C 297.609375 169.832031 296.347656 168.210938 294.957031 166.242188 C 291.039062 169.601562 289.585938 173.722656 288.117188 177.796875 C 285.457031 185.15625 283.015625 192.601562 280.246094 199.917969 C 278.554688 204.375 276.570312 208.734375 274.449219 213.003906 C 271.859375 218.226562 268.253906 218.359375 265.175781 213.535156 C 264.867188 213.054688 264.648438 212.515625 264.332031 212.039062 C 259.867188 205.304688 247.332031 199.601562 238.707031 200.621094 C 239.472656 202.058594 240.210938 203.359375 240.878906 204.695312 C 243.972656 210.914062 246.054688 217.449219 246.554688 224.398438 C 247.03125 231.007812 246.300781 237.417969 242.117188 242.921875 C 238.414062 247.796875 234.183594 248.910156 228.5 246.6875 C 227.332031 246.230469 226.144531 245.816406 224.691406 245.285156 C 224.476562 247.222656 224.449219 248.753906 224.109375 250.210938 C 223.546875 252.613281 223.101562 255.121094 222.035156 257.304688 C 218.859375 263.816406 212.578125 264.933594 207.664062 259.671875 C 205.097656 256.929688 203.285156 253.46875 201.21875 250.273438 C 200.320312 248.882812 199.644531 247.347656 198.910156 245.964844 C 191.40625 247.949219 188.261719 246.851562 184.078125 240.554688 C 180.25 234.796875 177.328125 228.597656 175.964844 221.738281 C 175.039062 217.074219 173.996094 212.4375 172.855469 207.09375 Z M 12.398438 347.957031 C 8.015625 352.503906 6.855469 357.464844 7.914062 362.648438 C 9.96875 372.730469 12.1875 382.800781 14.980469 392.699219 C 18.472656 405.066406 24.6875 416.320312 30.488281 427.714844 C 39.496094 445.394531 48.203125 463.242188 57.6875 480.660156 C 71.742188 506.472656 86.367188 531.972656 100.761719 557.59375 C 101.550781 559.003906 102.457031 560.347656 103.308594 561.722656 C 104.027344 558.300781 103.765625 555.136719 103.734375 551.976562 C 103.695312 548.085938 102.65625 544.695312 100.773438 541.171875 C 95.203125 530.75 89.96875 520.128906 85.042969 509.386719 C 82.503906 503.863281 81.160156 497.800781 78.8125 492.175781 C 70.796875 472.988281 62.710938 453.820312 54.359375 434.777344 C 50.914062 426.929688 46.617188 419.464844 42.882812 411.738281 C 39.820312 405.390625 36.792969 399 34.15625 392.464844 C 31.09375 384.859375 28.5 377.0625 25.65625 369.363281 C 22.78125 361.59375 18.585938 354.636719 12.398438 347.957031 Z M 214.832031 254.949219 C 215.3125 251.472656 215.9375 249.246094 215.851562 247.050781 C 215.691406 242.867188 215.179688 238.691406 214.722656 234.519531 C 214.136719 229.171875 214.828125 227.121094 217.652344 226.300781 C 220.199219 225.5625 221.804688 226.921875 224.515625 231.058594 C 226.367188 233.886719 228.570312 236.554688 230.984375 238.921875 C 232.757812 240.660156 235.117188 240.261719 236.308594 238.039062 C 237.535156 235.742188 238.679688 233.183594 238.96875 230.640625 C 240.238281 219.460938 236.289062 209.65625 230.402344 200.445312 C 229.222656 198.59375 227.546875 198.222656 225.515625 198.164062 C 212.480469 197.800781 199.660156 199.316406 186.996094 202.34375 C 185.726562 202.644531 184.515625 203.175781 183.3125 203.59375 C 185.519531 215.832031 184.289062 228.914062 194.457031 239.652344 C 195.472656 236.886719 195.875 234.804688 196.945312 233.164062 C 197.789062 231.878906 199.476562 230.316406 200.753906 230.347656 C 202.324219 230.386719 204.382812 231.605469 205.273438 232.949219 C 206.363281 234.597656 206.488281 236.898438 206.980469 238.929688 C 208.269531 244.300781 209.824219 249.535156 214.835938 254.949219 Z M 214.832031 254.949219 " fill-opacity="1" fill-rule="nonzero"/></g><path fill="#000000" d="M 231.542969 326.726562 C 232.574219 328.898438 233.496094 331.414062 234.875 333.644531 C 238.09375 338.84375 242.78125 339.753906 248.066406 336.589844 C 249.71875 335.601562 251.558594 334.933594 253.585938 333.992188 C 254.027344 339.988281 251.730469 342.023438 243.464844 344.234375 C 241.710938 346.539062 240.574219 348.917969 238.707031 350.28125 C 235.640625 352.515625 232.117188 351.960938 229.074219 349.863281 C 226.570312 348.136719 224.328125 347.558594 221.191406 348.566406 C 216.730469 350 212.757812 348.257812 208.882812 344.566406 C 210.296875 343.964844 211.226562 343.210938 212.0625 343.300781 C 213.34375 343.441406 214.535156 344.242188 215.804688 344.628906 C 221.300781 346.304688 226.34375 343.117188 226.96875 337.484375 C 227.199219 335.410156 227.054688 333.300781 227.101562 331.207031 C 227.15625 328.53125 226.101562 326.71875 223.824219 325.054688 C 220.625 322.722656 217.640625 319.964844 215.023438 316.988281 C 209.90625 311.167969 212.933594 303.332031 220.234375 302.308594 C 223.601562 301.835938 226.835938 300.46875 230.199219 299.910156 C 236.953125 298.785156 240.734375 302.753906 239.679688 309.582031 C 238.613281 316.457031 238.222656 317.285156 231.542969 326.730469 Z M 238.96875 343.597656 C 236.480469 341.578125 233.976562 339.546875 231.335938 337.398438 C 230.671875 340.125 230.105469 342.457031 229.5625 344.6875 C 235.175781 348.921875 236.886719 348.707031 238.96875 343.597656 Z M 238.96875 343.597656 " fill-opacity="1" fill-rule="nonzero"/><path fill="#000000" d="M 274.917969 270.449219 C 274.34375 272.761719 274.140625 274.28125 273.589844 275.667969 C 272.292969 278.929688 270.660156 282.03125 266.566406 282.25 C 262.257812 282.480469 259.300781 280.164062 257.511719 276.503906 C 255.644531 272.703125 254.457031 268.671875 255.988281 264.390625 C 257.238281 260.90625 259.589844 258.550781 263.335938 258.027344 C 266.941406 257.523438 269.769531 259.222656 271.460938 262.199219 C 273.015625 264.9375 273.933594 268.035156 274.917969 270.453125 Z M 274.917969 270.449219 " fill-opacity="1" fill-rule="nonzero"/><path fill="#000000" d="M 173.332031 276.003906 C 173.460938 275.3125 173.546875 273.757812 174.046875 272.347656 C 176.042969 266.703125 181.53125 265.402344 185.722656 269.621094 C 189.289062 273.21875 190.601562 277.683594 189.96875 282.691406 C 189.609375 285.539062 188.140625 287.695312 185.425781 288.757812 C 182.46875 289.914062 179.789062 289.117188 177.515625 287.058594 C 174.519531 284.339844 173.296875 280.824219 173.332031 276.003906 Z M 173.332031 276.003906 " fill-opacity="1" fill-rule="nonzero"/><path fill="#000000" d="M 129.476562 222.609375 C 128.398438 222.003906 127.210938 221.539062 126.261719 220.777344 C 121.351562 216.839844 116.566406 212.742188 111.605469 208.871094 C 108.917969 206.773438 106.125 204.6875 103.085938 203.195312 C 99.980469 201.667969 98.398438 202.734375 97.980469 206.121094 C 97.09375 213.308594 96.339844 220.511719 95.542969 227.710938 C 95.480469 228.277344 95.535156 228.859375 95.464844 229.425781 C 95.269531 231 94.886719 232.804688 92.925781 232.425781 C 92.101562 232.269531 91.125 230.554688 91.027344 229.472656 C 90.824219 227.214844 90.945312 224.875 91.308594 222.628906 C 92.28125 216.609375 93.300781 210.589844 94.582031 204.628906 C 95.617188 199.816406 98.105469 198.292969 102.933594 199.40625 C 104.925781 199.863281 107.039062 200.679688 108.601562 201.945312 C 115.417969 207.460938 122.078125 213.171875 128.722656 218.890625 C 129.496094 219.554688 129.828125 220.730469 130.367188 221.667969 C 130.070312 221.980469 129.773438 222.292969 129.476562 222.609375 Z M 129.476562 222.609375 " fill-opacity="1" fill-rule="nonzero"/><path fill="#000000" d="M 288.414062 219.042969 C 288.140625 217.222656 287.597656 215.800781 287.78125 214.480469 C 289.011719 205.617188 290.300781 196.757812 291.835938 187.941406 C 292.085938 186.519531 293.460938 184.996094 294.742188 184.191406 C 295.296875 183.839844 297.335938 184.898438 297.992188 185.820312 C 304.140625 194.417969 309.28125 203.484375 310.003906 214.378906 C 310.0625 215.285156 309.769531 216.214844 309.632812 217.21875 C 306.59375 217.464844 306.558594 215.183594 306.285156 213.472656 C 305.210938 206.757812 302.214844 200.804688 299.15625 194.875 C 298.308594 193.238281 297.230469 191.722656 295.148438 190.226562 C 294.800781 192.335938 294.390625 194.441406 294.117188 196.5625 C 293.410156 202.042969 292.8125 207.535156 292.070312 213.011719 C 291.632812 216.222656 291.542969 216.210938 288.417969 219.046875 Z M 288.414062 219.042969 " fill-opacity="1" fill-rule="nonzero"/><path fill="#000000" d="M 166.179688 345.902344 C 159.792969 351.3125 153.324219 355.488281 146.222656 359.484375 C 144.429688 355.019531 146.929688 352.839844 149.375 351.398438 C 153.914062 348.714844 158.785156 346.59375 163.578125 344.363281 C 163.9375 344.195312 164.769531 345.039062 166.179688 345.898438 Z M 166.179688 345.902344 " fill-opacity="1" fill-rule="nonzero"/><path fill="#000000" d="M 313.925781 285.691406 C 312.476562 288.746094 302.410156 298.476562 298.800781 300.332031 C 297.996094 300.746094 296.84375 300.492188 295.71875 300.550781 C 297.335938 293.773438 306.574219 286.210938 313.925781 285.691406 Z M 313.925781 285.691406 " fill-opacity="1" fill-rule="nonzero"/><path fill="#000000" d="M 144.394531 336.121094 C 146.628906 331.835938 156.925781 328.59375 166.378906 329.550781 C 165.277344 330.753906 164.671875 331.882812 163.734375 332.367188 C 157.527344 335.585938 148.515625 337.265625 144.390625 336.121094 Z M 144.394531 336.121094 " fill-opacity="1" fill-rule="nonzero"/><path fill="#000000" d="M 300.429688 318.832031 C 300.035156 316.320312 301.730469 315.753906 303.398438 315.359375 C 307.703125 314.339844 317.976562 317.847656 321.878906 321.808594 C 317.769531 323.21875 314.472656 320.695312 310.949219 320.28125 C 307.433594 319.875 303.933594 319.320312 300.429688 318.832031 Z M 300.429688 318.832031 " fill-opacity="1" fill-rule="nonzero"/><path fill="#000000" d="M 147.242188 317.34375 C 151.992188 313.855469 163.484375 314.613281 168.050781 318.667969 C 164.585938 321.152344 161.105469 319.003906 157.796875 318.882812 C 154.359375 318.75 150.695312 319.335938 147.242188 317.347656 Z M 147.242188 317.34375 " fill-opacity="1" fill-rule="nonzero"/><path fill="#000000" d="M 316.167969 303.480469 C 311.234375 305.710938 306.304688 307.941406 301.105469 310.292969 C 299.964844 307.933594 301.234375 306.078125 303.109375 304.8125 C 307.109375 302.117188 311.46875 300.957031 316.113281 302.203125 C 316.128906 302.628906 316.148438 303.054688 316.164062 303.480469 Z M 316.167969 303.480469 " fill-opacity="1" fill-rule="nonzero"/><g clip-path="url(#56bd22f041)"><path fill="#ff66c4" d="M 368.59375 81.460938 C 361.816406 67.835938 367.386719 9.375 409.199219 4.363281 C 435.839844 1.171875 482.085938 24.941406 485.253906 62.640625 C 486.242188 74.351562 480.472656 134.242188 423.84375 134.390625 C 398.164062 134.453125 431.527344 171.714844 423.328125 183.359375 C 418.484375 190.234375 392.445312 196.550781 391.0625 194.550781 C 391.019531 194.492188 371.101562 147.246094 375.1875 132.511719 C 384.398438 99.335938 408.792969 119.25 420.929688 105.945312 C 430.597656 95.332031 437.523438 83.597656 436.832031 73.164062 C 434.980469 45.238281 408.117188 30.246094 413.121094 73.402344 C 396.503906 78.40625 385.246094 81.132812 368.59375 81.460938 Z M 412.734375 214.554688 C 428.722656 226.816406 411.628906 254.359375 393.421875 238.023438 C 379.4375 225.476562 394.777344 200.78125 412.734375 214.554688 Z M 412.734375 214.554688 " fill-opacity="1" fill-rule="evenodd"/></g><path fill="#ffffff" d="M 376.230469 71.230469 C 369.453125 57.605469 375.851562 8.402344 417.667969 3.386719 C 444.308594 0.195312 483.378906 11.089844 486.550781 48.785156 C 487.535156 60.496094 488.109375 124.015625 431.480469 124.160156 C 405.800781 124.222656 428.992188 169.582031 420.796875 181.222656 C 415.949219 188.101562 400.082031 186.320312 398.699219 184.320312 C 398.65625 184.261719 375.234375 135.550781 382.828125 122.285156 C 393.835938 103.035156 419.289062 111.953125 431.417969 98.648438 C 441.09375 88.035156 445.160156 73.371094 444.46875 62.933594 C 442.621094 35.007812 404.984375 27.808594 409.984375 70.960938 C 393.410156 71.160156 392.882812 70.902344 376.230469 71.230469 Z M 420.371094 204.328125 C 436.359375 216.585938 419.265625 244.128906 401.058594 227.792969 C 387.074219 215.246094 402.414062 190.554688 420.371094 204.328125 Z M 420.371094 204.328125 " fill-opacity="1" fill-rule="evenodd"/><g clip-path="url(#bff275b9fa)"><path stroke-linecap="round" transform="matrix(0.454255, 0, 0, 0.454255, -2270.607015, -2452.050554)" fill="none" stroke-linejoin="round" d="M 5826.769961 5554.771744 C 5811.85026 5524.777556 5825.935834 5416.461389 5917.990817 5405.419951 C 5976.637709 5398.394362 6062.647419 5422.377674 6069.630011 5505.360447 C 6071.797022 5531.141002 6073.061112 5670.973424 5948.397769 5671.291596 C 5891.866292 5671.429184 5942.920046 5771.283688 5924.878817 5796.909456 C 5914.207146 5812.052738 5879.276988 5808.131479 5876.232853 5803.728663 C 5876.138262 5803.599674 5824.577152 5696.367013 5841.294096 5667.163956 C 5865.526786 5624.786846 5921.559506 5644.418937 5948.260181 5615.129887 C 5969.560526 5591.765722 5978.512346 5559.484133 5976.990279 5536.506934 C 5972.922833 5475.030888 5890.069049 5459.182469 5901.07609 5554.178396 C 5864.589467 5554.616957 5863.428569 5554.049407 5826.769961 5554.771744 Z M 5923.941499 5847.774027 C 5959.138233 5874.758477 5921.507911 5935.391796 5881.426801 5899.429728 C 5850.641482 5871.808934 5884.410741 5817.453067 5923.941499 5847.774027 Z M 5923.941499 5847.774027 " stroke="#000000" stroke-width="12.5" stroke-opacity="1" stroke-miterlimit="1.5"/></g></g></g></svg>